<?xml version="1.0" encoding="utf-8" ?>
<svg xmlns="http://www.w3.org/2000/svg" xmlns:xlink="http://www.w3.org/1999/xlink" width="1024" height="1024" viewBox="0 0 1024 1024">
  <style>
    .c1 { fill: #335BF1; }
    .c2 { fill: #1F2C47; }
    .c3 { fill: #5479EB; }
    .c4 { fill: #8FA2EB; }
    @media (prefers-color-scheme: dark) {
      .c2 { fill: #7BA0FF; }
    }
  </style>
  <path class="c1" d="M111.612 693.431C114.395 703.902 120.695 714.752 128.268 722.482C138.805 733.24 153.166 739.397 168.223 739.611C183.399 739.699 197.38 733.414 208.212 722.945C230.163 701.732 225.8 672.299 225.619 644.672L225.588 571.444L225.796 260.465C226.335 195.354 279.106 139.447 344.181 134.691C357.884 133.69 372.221 134.199 386.007 134.214C405.173 134.098 424.34 134.114 443.505 134.261C443.904 153.484 443.517 173.911 443.478 193.246L443.499 287.632L443.503 326.349C443.537 349.17 443.603 365.073 458.124 384.491C471.645 402.572 489.695 413.181 511.967 416.657C499.624 418.156 482.516 424.515 471.788 430.809C448.79 444.301 432.341 464.797 425.628 490.713C419.381 514.632 422.923 540.054 435.468 561.355C450.957 587.251 468.292 596.33 496.172 603.269L494.804 604.471C479.109 606.577 468.009 612.543 458.344 625.327C451.705 634.247 447.192 644.567 445.151 655.498C442.981 666.592 443.622 676.862 443.48 687.972C443.217 708.513 444.442 729.184 441.874 749.587C439.003 771.851 431.568 793.283 420.033 812.541C361.102 911.909 227.676 920.051 153.984 835.004C130.857 808.312 115.818 778.357 111.554 742.912C109.262 725.393 110.611 712.242 109.916 695.155L111.612 693.431Z"/>
  <path class="c1" d="M541.071 421.137C572.576 410.618 583.977 380.578 583.728 349.698C583.688 344.805 583.76 339.827 583.766 334.924L583.835 296.953C583.974 252.817 601.694 210.555 633.075 179.517C664.172 148.426 706.46 131.138 750.432 131.541C798.008 132.062 838.007 150.793 870.99 184.738C894.749 209.19 911.8 242.32 916.782 276.105C919.292 293.126 919.264 311.25 919.083 328.418L917.496 328.915C911.937 311.326 903.695 298.489 887.301 289.398C850.966 269.248 809.501 292.086 803.018 332.05C801.48 341.531 802.147 352.896 802.203 362.579L802.395 406.527L802.446 647.122L802.37 727.831C802.317 739.953 802.762 757.373 801.786 769.202C800.85 779.734 798.618 790.109 795.14 800.094C777.475 851.492 725.492 891.115 670.67 890.248C641.774 889.79 612.684 890.808 583.784 890.182C583.143 876.024 583.788 855.557 583.757 840.922L583.655 731.604C583.625 690.067 590.37 646.997 549.575 620.143C542.324 615.37 536.626 613.439 528.575 610.551C532.418 609.4 536.383 608.435 540.298 607.554C566.759 601.594 588.834 584.429 601.624 560.464C613.671 537.918 616.226 511.498 608.724 487.061C601.038 462.598 583.986 442.17 561.291 430.237C555.281 427.1 547.823 424.319 541.083 423.393C541.451 422.188 541.458 422.317 541.071 421.137Z"/>
  <path class="c2" d="M513.23 458.705C544.243 455.95 571.611 478.874 574.338 509.89C577.064 540.905 554.116 568.252 523.097 570.95C492.119 573.645 464.816 550.732 462.093 519.757C459.37 488.781 482.257 461.457 513.23 458.705Z"/>
  <path class="c3" fill-opacity="0.98823529" d="M919.083 328.418C919.06 329.524 919.21 334.666 918.787 335.399L918.744 335.394C918.665 335.203 918.633 334.875 918.603 334.666C918.482 334.077 918.494 334.13 918.231 333.585C918.012 331.945 917.797 330.554 917.496 328.915L919.083 328.418Z"/>
  <path class="c3" d="M109.86 689.529L111.078 690.546C111.22 691.641 111.402 692.371 111.612 693.431L109.916 695.155C109.88 693.28 109.861 691.405 109.86 689.529Z"/>
  <path class="c3" fill-opacity="0.97254902" d="M541.071 421.137C541.458 422.317 541.451 422.188 541.083 423.393C536.836 422.541 537.672 422.392 541.071 421.137Z"/>
  <path class="c4" fill-opacity="0.81960785" d="M109.86 689.529C109.873 689.167 109.778 687.46 110.246 687.257C110.782 687.517 111.006 689.956 111.078 690.546L109.86 689.529Z"/>
  <path class="c3" fill-opacity="0.89019608" d="M496.172 603.269C496.944 603.381 497.716 603.501 498.486 603.629C498.074 603.801 498.024 603.919 497.651 604.273C496.724 604.346 495.73 604.442 494.804 604.471L496.172 603.269Z"/>
  <path class="c4" fill-opacity="0.64705884" d="M498.486 603.629C498.69 603.916 498.785 603.95 498.8 604.221C498.471 604.432 498.041 604.291 497.651 604.273C498.024 603.919 498.074 603.801 498.486 603.629Z"/>
</svg>
